<?xml version="1.0" standalone="no"?>
<!DOCTYPE svg PUBLIC "-//W3C//DTD SVG 20010904//EN"
 "http://www.w3.org/TR/2001/REC-SVG-20010904/DTD/svg10.dtd">
<svg version="1.0" xmlns="http://www.w3.org/2000/svg"
 width="210.000000pt" height="210.000000pt" viewBox="0 0 210.000000 210.000000"
 preserveAspectRatio="xMidYMid meet">
<metadata>
Created by potrace 1.12, written by Peter Selinger 2001-2015
</metadata>
<g transform="translate(0.000000,210.000000) scale(0.100000,-0.100000)"
fill="#000000" stroke="none">
<path d="M300 1500 l0 -600 300 0 300 0 0 -50 0 -50 -200 0 -200 0 0 -50 0
-50 -50 0 -50 0 0 -50 0 -50 -100 0 -100 0 0 -50 0 -50 -100 0 -100 0 0 -150
0 -150 200 0 200 0 0 -50 0 -50 -50 0 -50 0 0 -50 0 -50 200 0 200 0 0 50 0
50 50 0 50 0 0 250 0 250 50 0 50 0 0 50 0 50 150 0 150 0 0 -50 0 -50 50 0
50 0 0 -300 0 -300 150 0 150 0 0 150 0 150 50 0 50 0 0 -50 0 -50 200 0 200
0 0 150 0 150 -100 0 -100 0 0 50 0 50 -100 0 -100 0 0 50 0 50 -50 0 -50 0 0
50 0 50 -200 0 -200 0 0 50 0 50 300 0 300 0 0 600 0 600 -750 0 -750 0 0
-600z m600 250 l0 -150 -150 0 -150 0 0 150 0 150 150 0 150 0 0 -150z m600 0
l0 -150 -150 0 -150 0 0 150 0 150 150 0 150 0 0 -150z m-600 -500 l0 -150
-150 0 -150 0 0 150 0 150 150 0 150 0 0 -150z m600 0 l0 -150 -150 0 -150 0
0 150 0 150 150 0 150 0 0 -150z m-1000 -1000 l0 -50 -50 0 -50 0 0 50 0 50
50 0 50 0 0 -50z"/>
</g>
</svg>
