<?xml version="1.0" standalone="no"?>
<!DOCTYPE svg PUBLIC "-//W3C//DTD SVG 20010904//EN"
 "http://www.w3.org/TR/2001/REC-SVG-20010904/DTD/svg10.dtd">
<svg version="1.0" xmlns="http://www.w3.org/2000/svg"
 width="210.000000pt" height="210.000000pt" viewBox="0 0 210.000000 210.000000"
 preserveAspectRatio="xMidYMid meet">
<metadata>
Created by potrace 1.12, written by Peter Selinger 2001-2015
</metadata>
<g transform="translate(0.000000,210.000000) scale(0.100000,-0.100000)"
fill="#000000" stroke="none">
<path d="M100 1950 l0 -150 100 0 100 0 0 -100 0 -100 150 0 150 0 0 150 0
150 -100 0 -100 0 0 100 0 100 -150 0 -150 0 0 -150z"/>
<path d="M1000 1450 l0 -650 150 0 150 0 0 500 0 500 250 0 250 0 0 -500 0
-500 150 0 150 0 0 650 0 650 -550 0 -550 0 0 -650z"/>
<path d="M1400 1200 l0 -500 -50 0 -50 0 0 -100 0 -100 -50 0 -50 0 0 -50 0
-50 -50 0 -50 0 0 -50 0 -50 -100 0 -100 0 0 -50 0 -50 -100 0 -100 0 0 -100
0 -100 150 0 150 0 0 50 0 50 150 0 150 0 0 50 0 50 50 0 50 0 0 50 0 50 50 0
50 0 0 100 0 100 50 0 50 0 0 -250 0 -250 250 0 250 0 0 200 0 200 -100 0
-100 0 0 -150 0 -150 -50 0 -50 0 0 250 0 250 -50 0 -50 0 0 550 0 550 -150 0
-150 0 0 -500z"/>
<path d="M0 1350 l0 -150 150 0 150 0 0 -50 0 -50 -100 0 -100 0 0 -50 0 -50
-50 0 -50 0 0 -150 0 -150 100 0 100 0 0 -350 0 -350 150 0 150 0 0 500 0 500
50 0 50 0 0 -100 0 -100 50 0 50 0 0 -50 0 -50 100 0 100 0 0 150 0 150 -50 0
-50 0 0 50 0 50 -50 0 -50 0 0 50 0 50 50 0 50 0 0 150 0 150 -400 0 -400 0 0
-150z"/>
</g>
</svg>
